# xmcd
#
# Track frame offsets:
#	150
#	12990
#	27110
#	40858
#	53745
#	68898
#	80683
#	92373
#	108073
#	137263
#	147983
#	158060
#	174560
#	188723
#	197620
#	210500
#	229583
#	243140
#	253013
#	272735
#	286098
#	298168
#	311000
#
# Disc length: 4313 seconds
#
# Revision: 0
# Processed by: cddbd v1.5PL3 Copyright (c) Steve Scherf et al.
# Submitted via: dBpowerAMP V4.0
#
DISCID=3410d717
DTITLE=Ray Charles - The hits of Ray Charles
DYEAR=1995
DGENRE=Blues
TTITLE0=I've got a woman
TTITLE1=Come back baby
TTITLE2=A fool for you
TTITLE3=Greenbacks
TTITLE4=Drown in my own tears
TTITLE5=Hallelujah I love her so
TTITLE6=Lonely avenue
TTITLE7=Night time is the right time
TTITLE8=What'd I say
TTITLE9=I'm movin' on
TTITLE10=Sticks and stones
TTITLE11=Georgia on my mind
TTITLE12=One mint julep
TTITLE13=Hit the road jack
TTITLE14=Unchain my heart
TTITLE15=I can't stop loving you
TTITLE16=You are my sunshine
TTITLE17=Busted
TTITLE18=That lucky old sun
TTITLE19=Crying time
TTITLE20=Together again
TTITLE21=Let's go get stoned
TTITLE22=Yesterday
EXTD=
EXTT0=
EXTT1=
EXTT2=
EXTT3=
EXTT4=
EXTT5=
EXTT6=
EXTT7=
EXTT8=
EXTT9=
EXTT10=
EXTT11=
EXTT12=
EXTT13=
EXTT14=
EXTT15=
EXTT16=
EXTT17=
EXTT18=
EXTT19=
EXTT20=
EXTT21=
EXTT22=
PLAYORDER=
